<?xml version="1.0" encoding="UTF-8" standalone="no"?>
<!-- Created with Inkscape (http://www.inkscape.org/) -->

<svg
   xmlns:dc="http://purl.org/dc/elements/1.1/"
   xmlns:cc="http://creativecommons.org/ns#"
   xmlns:rdf="http://www.w3.org/1999/02/22-rdf-syntax-ns#"
   xmlns:svg="http://www.w3.org/2000/svg"
   xmlns="http://www.w3.org/2000/svg"
   xmlns:sodipodi="http://sodipodi.sourceforge.net/DTD/sodipodi-0.dtd"
   xmlns:inkscape="http://www.inkscape.org/namespaces/inkscape"
   width="376.29019"
   height="274.89737"
   id="svg7636"
   version="1.1"
   inkscape:version="0.48.4 r9939"
   sodipodi:docname="Microsoft Store 2012 stacked.svg">
  <defs
     id="defs7638" />
  <sodipodi:namedview
     id="base"
     pagecolor="#ffffff"
     bordercolor="#666666"
     borderopacity="1.0"
     inkscape:pageopacity="0.0"
     inkscape:pageshadow="2"
     inkscape:zoom="1.4"
     inkscape:cx="425.20346"
     inkscape:cy="176.54815"
     inkscape:document-units="px"
     inkscape:current-layer="layer1"
     showgrid="false"
     fit-margin-top="0"
     fit-margin-left="0"
     fit-margin-right="0"
     fit-margin-bottom="0"
     inkscape:window-width="1920"
     inkscape:window-height="1018"
     inkscape:window-x="-8"
     inkscape:window-y="-8"
     inkscape:window-maximized="1" />
  <metadata
     id="metadata7641">
    <rdf:RDF>
      <cc:Work
         rdf:about="">
        <dc:format>image/svg+xml</dc:format>
        <dc:type
           rdf:resource="http://purl.org/dc/dcmitype/StillImage" />
        <dc:title></dc:title>
      </cc:Work>
    </rdf:RDF>
  </metadata>
  <g
     inkscape:label="Layer 1"
     inkscape:groupmode="layer"
     id="layer1"
     transform="translate(-3.437499e-8,-777.46482)">
    <g
       id="g7887">
      <path
         inkscape:connector-curvature="0"
         id="text7655"
         d="m 210.19791,1007.7461 c -2.55347,0 -4.66936,0.8815 -6.3778,2.6619 -1.70844,1.7804 -2.54514,4.1968 -2.54513,7.2624 l 0,4.7451 -4.85072,0 0,3.9929 4.85072,0 0,25.2594 4.46146,0 0,-25.2594 5.56936,0 7.33596,0 0,17.3025 c -1e-5,5.7124 2.45422,8.5934 7.39585,8.5934 1.74514,0 3.18637,-0.3166 4.25187,-0.9259 l 0,-3.9929 c -0.82668,0.6474 -1.82538,0.9548 -2.96433,0.9548 -1.48801,0 -2.56092,-0.4063 -3.20387,-1.2441 -0.64297,-0.8378 -0.95818,-2.2342 -0.95817,-4.1955 l 0,-16.4923 7.12637,0 0,-3.9929 -7.12637,0 0,-8.6511 -4.52135,1.5045 0,7.1466 -7.33596,0 -5.56936,0 0,-4.5136 c -10e-6,-4.132 1.57125,-6.1919 4.73096,-6.1919 1.12057,0 2.14242,0.2382 3.02421,0.7523 l 0,-4.2244 c -0.80831,-0.3426 -1.91594,-0.4918 -3.2937,-0.4918 z m -157.798147,1.1574 c -0.8083,0 -1.526523,0.2872 -2.095991,0.868 -0.569486,0.5808 -0.838396,1.3231 -0.838396,2.1989 0,0.8759 0.26891,1.5989 0.838396,2.17 0.569468,0.5713 1.287691,0.8392 2.095991,0.8392 0.826658,0 1.547257,-0.2778 2.125933,-0.868 0.578666,-0.5903 0.868329,-1.3033 0.868338,-2.1412 -9e-6,-0.8758 -0.289672,-1.6181 -0.868338,-2.1989 -0.578676,-0.5808 -1.299275,-0.868 -2.125933,-0.868 z m 211.934587,1.1283 c -1.70845,0 -3.41618,0.1986 -5.06032,0.6366 -1.64414,0.438 -3.08573,1.1015 -4.37163,1.9965 -1.28593,0.8949 -2.32413,2.0337 -3.11405,3.4142 -0.78992,1.3805 -1.19771,3.0237 -1.19771,4.8897 0,1.5234 0.27333,2.831 0.77852,3.964 0.50518,1.1329 1.18426,2.1431 2.06604,3.038 0.88177,0.895 1.94992,1.7168 3.14399,2.4595 1.19406,0.7425 2.45488,1.4754 3.83266,2.199 1.30428,0.6854 2.52323,1.3486 3.65302,1.9675 1.12976,0.6188 2.1077,1.2625 2.93438,1.9385 0.82664,0.676 1.47781,1.4381 1.94627,2.2568 0.46843,0.8189 0.71862,1.7601 0.71863,2.8645 -1e-5,2.0565 -0.72063,3.6503 -2.12593,4.7452 -1.40535,1.0948 -3.56038,1.6203 -6.40774,1.6203 -0.82668,0 -1.72123,-0.06 -2.69484,-0.2315 -0.97364,-0.1714 -1.91008,-0.4381 -2.87451,-0.7523 -0.96445,-0.3142 -1.88216,-0.7004 -2.75473,-1.1573 -0.8726,-0.457 -1.65106,-0.9623 -2.27565,-1.5336 l 0,5.6711 c 0.51438,0.3618 1.21184,0.6887 2.06606,0.9837 0.85422,0.2952 1.76953,0.5234 2.72478,0.7234 0.95525,0.1999 1.89609,0.3583 2.81462,0.463 0.9185,0.1047 1.68099,0.1736 2.30559,0.1736 1.87374,0 3.63972,-0.2173 5.3298,-0.6077 1.69005,-0.3903 3.19628,-1.0048 4.49141,-1.8806 1.29509,-0.8759 2.3217,-2.0148 3.0841,-3.4142 0.76234,-1.3996 1.13779,-3.1319 1.13782,-5.1503 -3e-5,-1.5233 -0.27814,-2.8701 -0.8384,-4.0507 -0.56031,-1.1806 -1.32042,-2.2406 -2.27564,-3.2117 -0.95528,-0.9711 -2.05611,-1.8622 -3.32364,-2.662 -1.26756,-0.7996 -2.62778,-1.5621 -4.04227,-2.2857 -1.37778,-0.7046 -2.59673,-1.3483 -3.65301,-1.9386 -1.0563,-0.5903 -1.9301,-1.1944 -2.6649,-1.8228 -0.73482,-0.6284 -1.30022,-1.3216 -1.67679,-2.0832 -0.37662,-0.7617 -0.56892,-1.6725 -0.56891,-2.7198 -1e-5,-1.1235 0.25257,-2.0838 0.74856,-2.8645 0.49599,-0.7807 1.15634,-1.4145 1.94628,-1.9097 0.7899,-0.495 1.68447,-0.8515 2.69484,-1.0705 1.01036,-0.2189 2.01384,-0.3183 3.02421,-0.3183 3.65567,0 6.64977,0.8128 8.98283,2.4883 l 0,-5.3817 c -1.78194,-0.971 -4.60926,-1.4467 -8.50374,-1.4467 z M 3.4374992e-8,1010.6974 l 0,40.9704 4.461464965625008,0 0,-27.4294 c -8e-6,-3.7131 -0.09256,-6.3771 -0.239541,-8.0147 l 0.119771,0 c 0.404126,1.8851 0.781979,3.2814 1.167765,4.1954 l 13.474226,31.2487 2.275647,0 13.504167,-31.4801 c 0.348993,-0.7998 0.756779,-2.117 1.197708,-3.964 l 0.119771,0 c -0.257219,3.1419 -0.419237,5.7861 -0.419198,7.9569 l 0,27.4872 4.611179,0 0,-40.9704 -5.808887,0 -12.366345,28.4419 c -0.477646,1.1044 -1.096497,2.7877 -1.886391,5.0345 l -0.149714,0 c -0.275578,-1.0853 -0.889648,-2.7289 -1.826505,-4.9187 L 6.108315,1010.6974 3.437499e-8,1010.6974 z M 287.74956,1013.7644 l -4.52135,1.5045 0,7.1466 -4.85073,0 0,3.9929 4.85073,0 0,17.3025 c -10e-6,5.7124 2.48418,8.5934 7.42579,8.5934 1.74515,0 3.12649,-0.3166 4.19198,-0.9259 l 0,-3.9929 c -0.82667,0.6474 -1.82539,0.9548 -2.96433,0.9548 -1.488,0 -2.53098,-0.4063 -3.17392,-1.2441 -0.64297,-0.8378 -0.95817,-2.2342 -0.95817,-4.1955 l 0,-16.4923 7.09642,0 0,-3.9929 -7.09642,0 0,-8.6511 z m -211.245904,7.9567 c -4.44561,0 -8.02586,1.4751 -10.68955,4.398 -2.66369,2.9229 -4.012329,6.785 -4.012329,11.6025 0,4.3224 1.242091,7.8474 3.712899,10.5608 2.47081,2.7134 5.73823,4.0798 9.76132,4.0798 2.97598,0 5.52758,-0.7024 7.69529,-2.0544 l 0,-4.4558 c -2.16771,1.6947 -4.48513,2.5462 -6.94671,2.5462 -2.92089,0 -5.24068,-0.9709 -6.97666,-2.9513 -1.736,-1.9803 -2.60501,-4.7029 -2.60501,-8.1304 0,-3.4846 0.93846,-6.2775 2.78467,-8.4198 1.8462,-2.1421 4.21228,-3.2116 7.09643,-3.2116 2.38811,0 4.61294,0.7335 6.70716,2.2569 l 0,-4.7742 c -1.89215,-0.952 -4.04754,-1.4467 -6.52751,-1.4467 z m 45.453054,0 c -4.40886,0 -7.9197,1.3766 -10.5099,4.1376 -2.59021,2.761 -3.89255,6.603 -3.89255,11.5157 0,4.5129 1.25366,8.1467 3.74284,10.8792 2.48917,2.7324 5.8308,4.1086 10.00087,4.1086 4.28027,0 7.66616,-1.4158 10.21047,-4.2244 2.54424,-2.8086 3.83265,-6.5612 3.83267,-11.2263 -2e-5,-4.7605 -1.17269,-8.4837 -3.53325,-11.1685 -2.36061,-2.6849 -5.64438,-4.0219 -9.85115,-4.0219 z m 29.76307,0 c -1.37778,0 -2.71724,0.188 -4.01233,0.5498 -1.29512,0.3618 -2.463,0.9063 -3.47335,1.6203 -1.01038,0.7141 -1.81916,1.6051 -2.42536,2.6619 -0.60623,1.0568 -0.89828,2.2458 -0.89828,3.6167 0,1.1235 0.15759,2.1134 0.47908,2.9513 0.32148,0.8378 0.80348,1.5999 1.43725,2.2568 0.63376,0.6569 1.38946,1.2414 2.33553,1.765 0.94605,0.5236 2.07444,1.0483 3.32365,1.5625 0.90012,0.3617 1.73443,0.7084 2.51518,1.0416 0.78073,0.3332 1.45742,0.7095 2.03611,1.1284 0.57864,0.4189 1.0375,0.904 1.37736,1.4467 0.33984,0.5427 0.509,1.1868 0.50902,1.9675 -2e-5,2.742 -1.99063,4.1086 -5.95859,4.1086 -2.95763,0 -5.65287,-0.9215 -8.11448,-2.8066 l 0,5.0056 c 2.13094,1.1615 4.64306,1.765 7.54557,1.765 1.4696,0 2.88088,-0.1782 4.22191,-0.5208 1.34104,-0.3428 2.53443,-0.8869 3.56319,-1.5914 1.02871,-0.7046 1.83989,-1.5666 2.4553,-2.633 0.61539,-1.0663 0.9282,-2.3432 0.92822,-3.7904 -2e-5,-1.1805 -0.19233,-2.1812 -0.56891,-3.038 -0.3766,-0.8569 -0.91884,-1.6289 -1.6169,-2.2858 -0.69809,-0.6569 -1.55316,-1.2413 -2.54513,-1.7649 -0.99201,-0.5237 -2.10442,-1.0385 -3.35359,-1.5336 -0.93688,-0.3808 -1.78038,-0.7179 -2.51518,-1.0416 -0.73481,-0.3237 -1.3421,-0.6996 -1.85645,-1.0995 -0.51437,-0.3999 -0.90141,-0.8457 -1.16777,-1.3598 -0.26638,-0.5142 -0.4192,-1.148 -0.41919,-1.9097 -1e-5,-0.6093 0.15281,-1.1735 0.41919,-1.6781 0.26636,-0.5046 0.62105,-0.9403 1.10788,-1.3021 0.4868,-0.3618 1.08692,-0.6391 1.76662,-0.839 0.6797,-0.2 1.46054,-0.2894 2.30559,-0.2894 2.70041,0 5.05051,0.7031 7.12637,2.1121 l 0,-4.7451 c -1.92891,-0.8759 -4.08428,-1.331 -6.52751,-1.331 z m 27.21793,0 c -4.40887,0 -7.9197,1.3766 -10.5099,4.1376 -2.59022,2.761 -3.89255,6.603 -3.89255,11.5157 0,4.5129 1.25366,8.1467 3.74284,10.8792 2.48916,2.7324 5.8308,4.1086 10.00087,4.1086 4.28026,0 7.66615,-1.4158 10.21047,-4.2244 2.54425,-2.8086 3.83264,-6.5612 3.83266,-11.2263 -2e-5,-4.7605 -1.17269,-8.4837 -3.53324,-11.1685 -2.3606,-2.6849 -5.64437,-4.0219 -9.85115,-4.0219 z m 134.47276,0 c -4.40886,0 -7.9197,1.3766 -10.5099,4.1376 -2.59021,2.761 -3.89255,6.603 -3.89255,11.5157 0,4.5129 1.25366,8.1467 3.74284,10.8792 2.48917,2.7324 5.8308,4.1086 10.00087,4.1086 4.28027,0 7.66616,-1.4158 10.21047,-4.2244 2.54425,-2.8086 3.83264,-6.5612 3.83267,-11.2263 -3e-5,-4.7605 -1.17269,-8.4837 -3.53325,-11.1685 -2.36061,-2.6849 -5.64438,-4.0219 -9.85115,-4.0219 z m 51.32183,0 c -3.69243,0 -6.82303,1.4454 -9.31219,4.3112 -2.48918,2.8657 -3.74284,6.5597 -3.74284,11.1106 0,4.8175 1.13555,8.5701 3.41346,11.2264 2.27791,2.6563 5.4456,3.9929 9.43196,3.9929 4.07819,0 7.37115,-0.9405 9.85116,-2.8067 l 0,-4.3979 c -2.66371,2.1707 -5.59518,3.2406 -8.77322,3.2406 -2.82904,0 -5.06065,-0.8911 -6.67722,-2.6619 -1.6166,-1.7709 -2.47167,-4.2667 -2.54514,-7.5229 l 19.91192,0 0,-2.4593 c -3e-5,-4.3986 -0.97358,-7.8251 -2.99428,-10.3005 -2.02075,-2.4754 -4.87121,-3.7325 -8.56361,-3.7325 z m -262.83721,0.1736 c -1.63497,0 -3.108874,0.5841 -4.431534,1.7361 -1.32267,1.152 -2.32137,2.7465 -2.96433,4.803 l -0.11976,0 0,-6.0183 -4.52136,0 0,29.2523 4.52136,0 0,-14.901 c -10e-6,-3.2561 0.65116,-5.8402 1.94627,-7.7254 1.29509,-1.8851 2.89189,-2.8355 4.820784,-2.8355 1.48798,0 2.65347,0.3265 3.44341,0.9548 l 0,-4.8609 c -0.6246,-0.2666 -1.51916,-0.4051 -2.69484,-0.4051 z m 244.123,0 c -1.63496,0 -3.10887,0.5841 -4.43151,1.7361 -1.32267,1.152 -2.32138,2.7465 -2.96434,4.803 l -0.0898,0 0,-6.0183 -4.52135,0 0,29.2523 4.52135,0 0,-14.901 c -1e-5,-3.2561 0.65118,-5.8402 1.94628,-7.7254 1.29511,-1.8851 2.92183,-2.8355 4.85072,-2.8355 1.48797,0 2.62355,0.3265 3.41347,0.9548 l 0,-4.8609 c -0.6246,-0.2666 -1.54911,-0.4051 -2.72479,-0.4051 z m -295.923917,0.5208 0,29.2523 4.491408,0 0,-29.2523 -4.491408,0 z m 71.503227,3.2696 c 2.92084,0 5.19637,0.9709 6.76705,2.9513 1.57063,1.9803 2.33552,4.7927 2.33553,8.4487 -1e-5,3.6179 -0.7649,6.4295 -2.33553,8.3908 -1.57068,1.9612 -3.84621,2.9223 -6.76705,2.9223 -2.86577,0 -5.14845,-0.9808 -6.85688,-2.9802 -1.70845,-1.9993 -2.54514,-4.7517 -2.54514,-8.2172 0,-3.5988 0.82512,-6.4017 2.5152,-8.4487 1.69004,-2.0469 3.98429,-3.067 6.88682,-3.067 z m 56.981,0 c 2.92084,0 5.19638,0.9709 6.76705,2.9513 1.57063,1.9803 2.33551,4.7927 2.33553,8.4487 -2e-5,3.6179 -0.7649,6.4295 -2.33553,8.3908 -1.57067,1.9612 -3.84621,2.9223 -6.76705,2.9223 -2.86577,0 -5.14846,-0.9808 -6.85688,-2.9802 -1.70846,-1.9993 -2.54515,-4.7517 -2.54514,-8.2172 -1e-5,-3.5988 0.82511,-6.4017 2.51519,-8.4487 1.69005,-2.0469 3.98431,-3.067 6.88683,-3.067 z m 134.47276,0 c 2.92084,0 5.19638,0.9709 6.76705,2.9513 1.57063,1.9803 2.33551,4.7927 2.33554,8.4487 -3e-5,3.6179 -0.76491,6.4295 -2.33554,8.3908 -1.57067,1.9612 -3.84621,2.9223 -6.76705,2.9223 -2.86577,0 -5.14845,-0.9808 -6.85689,-2.9802 -1.70844,-1.9993 -2.54513,-4.7517 -2.54512,-8.2172 -1e-5,-3.5988 0.82512,-6.4017 2.51519,-8.4487 1.69004,-2.0469 3.98429,-3.067 6.88682,-3.067 z m 51.59131,0 c 2.20441,0 3.91012,0.7236 5.15014,2.2279 1.23997,1.5043 1.868,3.6326 1.8864,6.3366 l -15.24085,0 c 0.34903,-2.5516 1.26674,-4.6404 2.75473,-6.2209 1.48799,-1.5804 3.31861,-2.3436 5.44958,-2.3436 z"
         style="font-size:62.03080368px;font-style:normal;font-variant:normal;font-weight:normal;font-stretch:normal;line-height:125%;letter-spacing:0px;word-spacing:0px;fill:#231f20;fill-opacity:1;stroke:none;font-family:Segoe UI;-inkscape-font-specification:Segoe UI" />
      <g
         transform="matrix(0.51264337,0,0,0.48238699,6.690232,563.0438)"
         id="g7622">
        <path
           inkscape:connector-curvature="0"
           style="fill:#d03f42;fill-opacity:1;stroke:none"
           d="m 168.5625,444.5 0,171.4375 171.4375,0 0,-171.4375 -171.4375,0 z"
           id="rect7572" />
        <path
           inkscape:connector-curvature="0"
           style="fill:#da773c;fill-opacity:1;stroke:none"
           d="m 216.28125,489.375 0,126.6875 123.84375,0 0,-126.6875 -123.84375,0 z"
           id="rect7574" />
        <path
           inkscape:connector-curvature="0"
           style="fill:#e39735;fill-opacity:1;stroke:none"
           d="m 257.59375,532.09375 0,84.09375 82.65625,0 0,-84.09375 -82.65625,0 z"
           id="rect7576" />
        <path
           inkscape:connector-curvature="0"
           style="fill:#3c68ac;fill-opacity:1;stroke:none"
           d="m 168.5625,630.875 0,171.40625 171.4375,0 0,-171.40625 -171.4375,0 z"
           id="rect7578" />
        <path
           inkscape:connector-curvature="0"
           style="fill:#467bc0;fill-opacity:1;stroke:none"
           d="m 216.28125,630.71875 0,126.71875 123.84375,0 0,-126.71875 -123.84375,0 z"
           id="rect7580" />
        <path
           inkscape:connector-curvature="0"
           style="fill:#84acdd;fill-opacity:1;stroke:none"
           d="m 257.59375,630.59375 0,84.09375 82.65625,0 0,-84.09375 -82.65625,0 z"
           id="rect7582" />
        <path
           inkscape:connector-curvature="0"
           style="fill:#7ab951;fill-opacity:1;stroke:none"
           d="m 353.3125,444.5 0,171.4375 171.4375,0 0,-171.4375 -171.4375,0 z"
           id="rect7584" />
        <path
           inkscape:connector-curvature="0"
           style="fill:#91bf4e;fill-opacity:1;stroke:none"
           d="m 353.1875,489.375 0,126.6875 123.84375,0 0,-126.6875 -123.84375,0 z"
           id="rect7586" />
        <path
           inkscape:connector-curvature="0"
           style="fill:#c5d743;fill-opacity:1;stroke:none"
           d="m 353.0625,532.09375 0,84.09375 82.65625,0 0,-84.09375 -82.65625,0 z"
           id="rect7588" />
        <path
           inkscape:connector-curvature="0"
           style="fill:#ecb842;fill-opacity:1;stroke:none"
           d="m 353.3125,630.875 0,171.40625 171.4375,0 0,-171.40625 -171.4375,0 z"
           id="rect7590" />
        <path
           inkscape:connector-curvature="0"
           style="fill:#f3d332;fill-opacity:1;stroke:none"
           d="m 353.1875,630.71875 0,126.71875 123.84375,0 0,-126.71875 -123.84375,0 z"
           id="rect7592" />
        <path
           inkscape:connector-curvature="0"
           style="fill:#f8e67a;fill-opacity:1;stroke:none"
           d="m 353.0625,630.59375 0,84.09375 82.65625,0 0,-84.09375 -82.65625,0 z"
           id="rect7594" />
      </g>
    </g>
  </g>
</svg>
